<?xml version="1.0" encoding="utf-8"?>
<!-- Generator: Adobe Illustrator 21.0.0, SVG Export Plug-In . SVG Version: 6.00 Build 0)  -->
<svg version="1.1" id="Layer_1" xmlns="http://www.w3.org/2000/svg" xmlns:xlink="http://www.w3.org/1999/xlink" x="0px" y="0px"
	 viewBox="0 0 640 210" style="enable-background:new 0 0 640 210;" xml:space="preserve">
<style type="text/css">
	.st0{fill:url(#SVGID_1_);}
	.st1{fill:url(#SVGID_2_);}
</style>
<g>
	<g>
		<linearGradient id="SVGID_1_" gradientUnits="userSpaceOnUse" x1="43.0036" y1="33.9838" x2="178.5972" y2="169.5774">
			<stop  offset="0" style="stop-color:#F6921E"/>
			<stop  offset="1" style="stop-color:#EE4036"/>
		</linearGradient>
		<path class="st0" d="M114,4.5C58.6,4.5,13.5,49.6,13.5,105c0,55.4,45.1,100.5,100.5,100.5c55.4,0,100.5-45.1,100.5-100.5
			C214.5,49.6,169.4,4.5,114,4.5z M114,195.9c-50.1,0-90.9-40.8-90.9-90.9c0-50.1,40.8-90.9,90.9-90.9s90.9,40.8,90.9,90.9
			C204.9,155.1,164.2,195.9,114,195.9z"/>
		<linearGradient id="SVGID_2_" gradientUnits="userSpaceOnUse" x1="40.3885" y1="36.8196" x2="175.9791" y2="172.4102">
			<stop  offset="0" style="stop-color:#F6921E"/>
			<stop  offset="1" style="stop-color:#EE4036"/>
		</linearGradient>
		<path class="st1" d="M172.7,108.6c-5.2,2.2-10.5,3.3-15.5,3.3c-7.3,0-13.5-2.4-18-6.8c-10.7-10.7-8.4-31.6,5.2-47.5l0.5-0.5
			c3.7-4.7-1.3-6.7-2-6.9l0,0c0,0-0.1,0-0.1,0h0l-0.5-0.2c-5.9-2-12.1-3.1-18.4-3.1c-23,0-42.8,13.9-51.5,33.6v-18h0
			c0-2.6-2.1-4.7-4.7-4.7c-2.6,0-4.7,2.1-4.7,4.7v85.2l0,0c0,2.6,2.1,4.6,4.7,4.6c2.6,0,4.7-2.1,4.7-4.6h0v-22
			c8.7,19.8,28.5,33.6,51.5,33.6c26.9,0,50.1-19.2,55.2-45.5l0.4-1.9C180.3,105.7,172.7,108.6,172.7,108.6z M124,149.9
			c-25.8,0-46.7-21-46.7-46.7c0-25.8,21-46.7,46.7-46.7c2.9,0,5.9,0.3,8.7,0.8c-12.9,19-13.3,41.5-0.2,54.6
			c6.3,6.3,14.8,9.6,24.7,9.6c3.3,0,6.8-0.4,10.3-1.2C160.6,137.8,143.5,149.9,124,149.9z"/>
	</g>
	<g>
		<path d="M262.1,139V62c0-1,0.7-1.7,1.7-1.7h7.6c1,0,1.7,0.7,1.7,1.7v35.8c0,0.5,0.3,0.7,0.7,0.2l32.5-36.9
			c0.6-0.7,1.3-0.9,2.1-0.9h8.6c1.5,0,1.8,0.9,0.9,2.1L291.4,94c-0.2,0.3-0.2,0.6-0.1,0.8l28.8,43.9c0.8,1.3,0.2,2.1-1.1,2.1h-8.6
			c-0.9,0-1.6-0.3-2.1-1.1l-24.6-37c-0.2-0.3-0.6-0.5-0.8-0.1l-9.5,10.6c-0.1,0.2-0.2,0.6-0.2,0.8V139c0,1-0.7,1.7-1.7,1.7h-7.6
			C262.8,140.7,262.1,140.1,262.1,139z"/>
		<path d="M340.2,114.2V86.9c0-16.4,11.4-27.5,28.4-27.5c17.1,0,28.5,11,28.5,27.5v27.3c0,16.5-11.4,27.6-28.5,27.6
			C351.5,141.8,340.2,130.8,340.2,114.2z M386,114.7V86.7c0-10.7-7-17.8-17.5-17.8c-10.3,0-17.3,7.1-17.3,17.8v27.9
			c0,10.6,7,17.6,17.3,17.6C379,132.2,386,125.2,386,114.7z"/>
		<path d="M471.2,69.9h-34.4c-0.3,0-0.6,0.2-0.6,0.6v24.5c0,0.3,0.2,0.6,0.6,0.6H470c1,0,1.7,0.7,1.7,1.7v6.1c0,1-0.7,1.7-1.7,1.7
			h-33.1c-0.3,0-0.6,0.2-0.6,0.6v25c0,0.3,0.2,0.6,0.6,0.6h34.4c1,0,1.7,0.7,1.7,1.7v6.1c0,1-0.7,1.7-1.7,1.7H427
			c-1,0-1.7-0.7-1.7-1.7V62c0-1,0.7-1.7,1.7-1.7h44.2c1,0,1.7,0.7,1.7,1.7v6.1C473,69.2,472.3,69.9,471.2,69.9z"/>
		<path d="M545.7,69.9h-34.4c-0.3,0-0.6,0.2-0.6,0.6v24.5c0,0.3,0.2,0.6,0.6,0.6h33.5c1,0,1.7,0.7,1.7,1.7v6.1c0,1-0.7,1.7-1.7,1.7
			h-33.5c-0.3,0-0.6,0.2-0.6,0.6v25c0,0.3,0.2,0.6,0.6,0.6h34.4c1,0,1.7,0.7,1.7,1.7v6.1c0,1-0.7,1.7-1.7,1.7h-44.2
			c-1,0-1.7-0.7-1.7-1.7V62c0-1,0.7-1.7,1.7-1.7h44.2c1,0,1.7,0.7,1.7,1.7v6.1C547.4,69.2,546.7,69.9,545.7,69.9z"/>
		<path d="M574.2,139V62c0-1,0.7-1.7,1.7-1.7h7.6c1,0,1.7,0.7,1.7,1.7v68.6c0,0.3,0.2,0.6,0.6,0.6h38.9c1,0,1.7,0.7,1.7,1.7v6.1
			c0,1-0.7,1.7-1.7,1.7h-48.8C574.9,140.7,574.2,140.1,574.2,139z"/>
	</g>
</g>
</svg>
