<svg width="17" height="16" viewBox="0 0 17 16" fill="none" xmlns="http://www.w3.org/2000/svg">
    <g clip-path="url(#a)">
        <path d="M16.344 8.184c0-.544-.044-1.09-.138-1.625H8.66v3.08h4.321a3.703 3.703 0 0 1-1.599 2.431v2h2.578c1.514-1.394 2.384-3.452 2.384-5.886z" fill="#4285F4"/>
        <path d="M8.66 16c2.158 0 3.977-.708 5.303-1.93l-2.578-2c-.717.488-1.643.765-2.722.765-2.087 0-3.857-1.408-4.491-3.301h-2.66v2.06a8.001 8.001 0 0 0 7.148 4.407z" fill="#34A853"/>
        <path d="M4.169 9.534a4.792 4.792 0 0 1 0-3.063V4.41H1.51a8.007 8.007 0 0 0 0 7.184l2.658-2.06z" fill="#FBBC04"/>
        <path d="M8.66 3.166a4.347 4.347 0 0 1 3.07 1.2l2.283-2.284A7.689 7.689 0 0 0 8.66 0 7.998 7.998 0 0 0 1.511 4.41L4.17 6.47C4.8 4.575 6.573 3.167 8.66 3.167z" fill="#EA4335"/>
    </g>
    <defs>
        <clipPath id="a">
            <path fill="#fff" transform="translate(.5)" d="M0 0h16v16H0z"/>
        </clipPath>
    </defs>
</svg>
