<svg width="16" height="16" viewBox="0 0 16 16" fill="none" xmlns="http://www.w3.org/2000/svg">
    <path d="M8 14a19.842 19.842 0 0 1-2.334-2.354C4.6 10.372 3.333 8.475 3.333 6.666a4.667 4.667 0 0 1 7.968-3.3 4.637 4.637 0 0 1 1.365 3.3c0 1.809-1.266 3.706-2.333 4.98A19.84 19.84 0 0 1 8 14zM8 3.333a3.337 3.337 0 0 0-3.334 3.334c0 .777.352 2.123 2.024 4.124.412.492.849.962 1.31 1.409.46-.446.898-.916 1.31-1.407 1.672-2.004 2.023-3.35 2.023-4.126A3.337 3.337 0 0 0 8 3.333zm0 5.334a2 2 0 1 1 0-4 2 2 0 0 1 0 4z" fill="#2E3A59"/>
</svg>
